<svg xmlns="http://www.w3.org/2000/svg" viewBox="0 0 4800 4480"><path d="M0 510 780 0v3610l-310 210a14490 14490 0 00-470 290V510Z" fill="#e85984"/><path d="M780 0h3460c120 0 230 100 240 220l10 650v2750H920l-140-10V0m1590 750c-80 220-140 450-210 670a2118560 2118560 0 01-430 1410h380l140-500 20-40h710l180 550h380c-70-260-160-510-240-770L2880 750h-510Z" fill="#e51050"/><path d="M2610 1020c30 60 40 120 60 190l220 770h-540l260-960Z" fill="#e51050"/><path d="M4490 870c100-20 200-10 310-10v3620H780c-80 0-170-10-230-70-40-40-80-100-80-160v-430l310-210 140 10h3560l10-270V870Z" fill="#770829"/></svg>
