<svg xmlns="http://www.w3.org/2000/svg" id="a" viewBox="0 0 802.6 804"><defs><style>.b{fill:#d81623}</style></defs><path d="M492 402q-16 18-43 34c-22 19-50 36-72 53h91v-27h57v59H300v-32c0-12 1-10 9-15 23-19 66-45 99-72H0v402h802V402zM255 630h-48v-53h-41v184h38v36H69v-36h39V577H61v53H19v-97h236zm284 167H418v-36h28l-49-66-46 66h28v36H260v-36h28l76-95-68-89h-29v-44h116v44h-25l42 59 43-59h-22v-44h111v44h-23l-72 89 78 95h24zm247-167h-49v-53h-42v184h34l1 36H598v-36h40V577h-46v53h-48v-97h242zM492 402h-84c23-19 41-39 43-58 3-37-50-41-69-25-10 9-7 25-11 37h-66c1-55 38-79 95-81 117-3 149 64 92 127M801 69c-1-41-31-58-65-69H574v44l36 1-1 184h-35v41h128v-41l-40-1v-55c74-1 148 6 140-104zm-51 19c-2 49-61 42-89 42l1-85c44 1 91-6 88 43" class="b"/><path d="M551 227h-26L446 0h-66l-82 227h-30v43h104v-43h-27l11-38h105l11 38h-27l-1 43h107zm-176-79 34-99 31 99z" style="fill:#d71623"/><path d="M244 191c-3 28-21 75-55 82s-60 7-103 0-81-60-81-91-8-50 2-89S60 19 84 7s80-4 92 8 17 10 17 10l8-22h41v101l-45-1c-9-23-13-46-36-57-27-13-61-10-80 15-18 24-20 55-19 85 1 60 29 97 97 89 35-7 28-34 37-52h48z" class="b"/></svg>