<?xml version="1.0" encoding="UTF-8"?><svg id="a" xmlns="http://www.w3.org/2000/svg" viewBox="0 0 109.2 122.88"><defs><style>.b{fill:#659ad2;}.b,.c,.d{fill-rule:evenodd;}.c{fill:#00599c;}.d{fill:#004482;}</style></defs><path class="c" d="m107.81,30.72l-28.93,16.7-1.16.67-7.36,4.25-15.76,9.1,15.77,9.11,37.44,21.61c.86-1.48,1.39-3.16,1.39-4.66v-52.12c0-1.5-.53-3.17-1.39-4.66Zm-16.81,32.74h-4.05v4.05h-4.04v-4.05h-4.05v-4.04h4.05v-4.05h4.04v4.05h4.05v4.04Zm15.16,0h-4.04v4.05h-4.05v-4.05h-4.04v-4.04h4.04v-4.05h4.05v4.05h4.04v4.04Z"/><path class="d" d="m70.37,70.54c-3.25,5.61-9.29,9.1-15.77,9.1s-12.61-3.67-15.76-9.11l15.76-9.1,15.77,9.11Z"/><path class="d" d="m107.81,92.16c-.86,1.48-2.04,2.78-3.34,3.53l-45.14,26.06c-2.6,1.51-6.86,1.51-9.46,0L4.73,95.68c-1.3-.75-2.48-2.05-3.34-3.53l21.69-12.52c6.31,10.87,18.07,18.2,31.52,18.2s25.03-6.97,31.52-18.17l-15.75-9.12,37.44,21.61Z"/><path class="b" d="m70.36,52.34l-15.76,9.1-15.76,9.1c-1.55-2.68-2.44-5.79-2.44-9.09,0-10.04,8.16-18.2,18.2-18.2,6.48,0,12.51,3.48,15.76,9.09Z"/><path class="b" d="m78.88,47.41l7.24-4.19c-6.49-11.22-18.57-18.19-31.52-18.19-20.07,0-36.4,16.33-36.4,36.4,0,6.63,1.78,12.84,4.88,18.2L1.39,92.16c-.86-1.49-1.39-3.16-1.39-4.66v-52.12c0-3.01,2.13-6.69,4.73-8.19L49.87,1.12c2.6-1.5,6.86-1.5,9.46,0l45.14,26.06c1.3.75,2.48,2.05,3.34,3.53l-28.93,16.7Z"/></svg>