<?xml version="1.0" encoding="UTF-8"?><svg xmlns="http://www.w3.org/2000/svg" viewBox="0 0 7281.8 8192"><defs><style>.d{fill:#2062af;}.d,.e{fill-rule:evenodd;}.e{fill:#3c9cd7;}</style></defs><g id="a" image-rendering="optimizeQuality" shape-rendering="geometricPrecision" text-rendering="geometricPrecision"><g id="b"><g id="c"><path class="d" d="m0,0l682.7,7395.5,2958.2,796.5,2958.2-796.5L7281.8,0H0Zm1775.1,6089.5l-120.4-1394.8h920l60.2,722.5,995.2,251.3,1035.2-291.4,70.3-1164-1094.5-3.5h0s-2.6,0-2.6,0l-2043.8-6.5v-1.4c-.1,0-70.2-871.7-70.2-871.7h-3.2l70.2,873h0s-70.2-873-70.2-873l2117.3-881.8,2.6-1.1,120.8-50.3H1440.7l-110.4-893.1h4575.8l-90.3,893h0s-2174.9,929.9-2174.9,929.9l-2.6,1.1-5.2,2.2h2105.8l-240.8,2769.5-1856.4,541.9-1866.6-551.9Z"/><polygon class="e" points="4735.4 4213 4665.1 5377.1 3640.8 5665.4 3640.8 4209.5 4735.4 4213"/><polygon class="e" points="6594.1 599 6041.5 6913.9 3647.6 7558.5 3640.8 7556.7 3640.8 6641.2 3641.6 6641.4 5498 6099.5 5738.9 3330 3640.8 3330 3633.1 3330 5815.7 2396.8 5815.8 2396.8 5906.1 1503.7 3640.8 1503.7 3640.8 599 6594.1 599"/></g></g></g></svg>