<svg xmlns="http://www.w3.org/2000/svg" version="1.1" viewBox="0 0 3400 2680"><defs><clipPath id="a"><path d="M0 0h3400v2680H0" fill="none"/></clipPath></defs><g clip-path="url(#a)"><path d="M3340 1100c-80-60-300-80-460-40-10-150-90-290-240-400l-60-40-30 50c-80 110-110 260-100 390 10 90 40 180 100 250-210 120-400 90-1250 90H0a1370 1370 0 00 350 950c190 190 470 330 900 330 650 0 1210-350 1560-1210 110 10 400 20 550-260l40-70-60-40ZM850 930H480v360h370V930Zm480 0H960v360h370V930Zm470 0h-370v360h370V930Zm470 0h-360v360h360V930ZM380 930H10v360h370V930Zm470-470H490v370h360V460Zm480 0H960v370h370V460Zm470 0h-370v370h370V460Zm0-460h-370v370h370V0Z" fill="#2560ff"/></g></svg>
