<?xml version="1.0" encoding="UTF-8"?><svg id="a" xmlns="http://www.w3.org/2000/svg" viewBox="0 0 2015 2015.2"><defs><style>.b{fill:#e7352c;}</style></defs><path class="b" d="m664.9,1501.7c0,78.4-63.6,142-142,142-9.3,0-18.6-.9-27.7-2.7-56.3-11.2-100.4-55.2-111.6-111.6-15.3-76.9,34.7-151.7,111.6-167,46.5-9.2,94.6,5.3,128.1,38.9,26.6,26.6,41.6,62.8,41.6,100.4h0Zm1239.1-147.8C1810.9,707.4,1303,199.4,656.5,106.5c-75.2,39.9-144.6,90-206.3,148.7v137.2c644.4.5,1166.7,522.5,1167.8,1166.8h137.2c58.2-61.7,108.2-130.8,148.7-205.3h0Z"/><path class="b" d="m2015,923.1c0-374.7-226.5-712.2-573.2-854.2C1329.3,22.8,1208.7-.6,1087.1,0,1054.5,0,1022.8,0,991.2,4.8l-21.1,61.4c455.1,159.5,813.1,517.1,973,972l61.4-22.1c0-30.7,5.8-61.4,5.8-96m-912.5,1094.8C493.3,2015,2.6,1526.5,0,922.1-.9,630.8,114.9,351.2,321.5,145.8l62.4,58.5C-13.6,598.3-16.5,1239.9,377.5,1637.3c2.1,2.1,4.2,4.2,6.4,6.4,394,397.5,1035.6,400.3,1433,6.3,2.1-2.1,4.2-4.2,6.3-6.3l58.5,58.5c-208.7,205.4-491.2,318.2-784,312.8Z"/><path class="b" d="m1085.4,1622.6c20.1-219.6-74.6-434-250.4-567.1-92.7-73-204.1-118.2-321.5-130.5-30.4-4-52.6-30.8-50.9-61.4,1.8-23.2,17.7-42.9,40-49.7,7.2-2.2,14.8-2.9,22.3-2.1,412.3,42.9,712.5,410.8,671.7,823.3-3.9,43.9-12.3,87.3-24.9,129.5l167,47c49.4-14.2,97.6-32.5,143.9-54.7,12.4-64.8,18.5-130.7,18.2-196.7-.6-520.6-380.7-963-895.3-1042.1-55.5-10.2-112.4-10.2-167.9,0-70.3,18.6-133.4,57.7-181.4,112.3-129.6,150-113,376.6,37,506.2,36,31.1,77.9,54.8,123.2,69.6,29.7,7.1,59.9,12.5,90.2,16.3,161.8,27.6,280.2,167.8,280.2,332,0,64.4-18.7,127.4-53.7,181.4l115.1,73.9c56.4,15.5,114.3,25.1,172.7,28.8,34.4-69.1,55.9-143.9,63.3-220.7"/></svg>