<?xml version="1.0" encoding="UTF-8"?><svg xmlns="http://www.w3.org/2000/svg" viewBox="0 0 1333.3 773.6"><defs><style>.b{fill:#000;}</style></defs><g id="a" image-rendering="optimizeQuality" shape-rendering="geometricPrecision" text-rendering="geometricPrecision"><path class="b" d="m1333.3,753.5c-48.5,12.3-78.5.5-105.4-39.9l-191.4-264.8-27.7-36.7-223.5,302.4c-25.5,36.4-52.3,52.2-100,39.3l286.2-384.2L705,22.5c45.8-8.9,77.5-4.4,105.6,36.7l198.5,268.1,200-266.7c25.6-36.4,53.2-50.2,99.2-36.8l-103.3,137-140,182.3c-16.7,20.8-14.4,35.1,1,55.2l267.3,355.2ZM.3,363.2l23.4-115.2C87.5,20.1,348.8-74.6,528.9,66.2c105.3,82.8,131.5,200,126.2,331.2H61.7c-8.9,236.2,161.1,378.8,377.9,306.1,76-25.5,120.8-85.1,143.2-159.6,11.4-37.3,30.2-43.2,65.3-32.5-17.9,93.2-58.3,171-143.8,219.7-127.6,72.9-309.8,49.3-405.6-52-57.1-58.8-80.7-133.3-91.2-213-1.7-13.2-5-25.7-7.5-38.3.2-21.6.3-43.1.3-64.7H.3Zm62.4-15.8h536.3c-3.5-170.8-109.9-292.2-255.2-293.2-159.6-1.2-274.2,117.2-281.1,293.2h0,0Z"/></g></svg>