<svg xmlns="http://www.w3.org/2000/svg" xml:space="preserve" fill-rule="evenodd" stroke-linejoin="round" stroke-miterlimit="2" clip-rule="evenodd" version="1.1" viewBox="0 0 5000 5000"><path d="M0 0h5000v5000H0" fill="none"/><clipPath id="a"><path d="M0 0h5000v5000H0"/></clipPath><g clip-path="url(#a)"><path d="M2240 600c0-40 0-60-20-70h-90L90 1410c-30 10-60 40-80 70v80l170 310v10c20 20 60 30 100 10h20c50 220 140 500 250 700l1790-800c-30-230-100-890-100-1190Zm150 1460L670 2830c100 190 220 390 380 590l1510-770c-30-90-70-180-170-590Zm2590 1830-130-190c-10-20-40-20-70-10l-150 60c-20-30-50-30-70-20l-160 60c-10 0-20 20-10 30l10 50a1650 1650 0 01-1730-990l-1450 740c260 290 600 550 1010 700 570 220 1300 240 2230-130v30c10 20 40 60 90 40l150-60c50-20 60-60 50-90l190-80c30 0 100-60 40-140Z" fill="#3babc3" fill-rule="nonzero"/></g></svg>
