<?xml version="1.0" encoding="UTF-8"?><svg id="a" xmlns="http://www.w3.org/2000/svg" viewBox="0 0 480 439.3"><defs><style>.b{fill:#ff9548;}.c{fill:#ff6902;}.d{fill:#933b00;}</style></defs><path class="c" d="m444.7,81.6c-.3-19.3.5-38.6-.3-57.8-.7-13.8-14-23.2-27-23.8H78.3s0,.5,0,.5c-.1,119.5-.6,239,.3,358.5,15.9,1.4,31.9.6,47.9.1,106.1-.2,212.3,0,318.4-.1,0-92.4,0-184.9-.1-277.3Zm-110.5,35.9c-25.5-.2-51.1,0-76.6-.1-.1,15.6-.2,31.2,0,46.8,21.5.4,42.9,0,64.4.2-.3,11.5-.3,23.1,0,34.6-21.5.6-43.1-1.1-64.5,1.2.5,26-.4,52,.5,77.9-16.7,3-34,2.5-50.8.6.5-65.9.2-131.8.1-197.7,42.3-.3,84.6,0,126.8-.2,0,12.2.1,24.5,0,36.7Z"/><path class="b" d="m0,47.9C25.8,31.6,52.1,16.1,78.3.5c-.1,119.5-.6,239,.3,358.5-12,7.1-24,14.5-36,21.6-14.2,8.5-28.3,17.2-42.5,25.7V47.9Z"/><path class="d" d="m444.7,81.6c11.8,0,23.5,0,35.3-.1-.3,119.3,0,238.5-.1,357.8H66.6c-10.8-1.7-21.3-8.8-23.4-20-2.1-12.8-.6-25.9-.6-38.7,12.1-7.1,24-14.5,36-21.6,15.9,1.4,31.9.6,47.9.1,106.1-.2,212.3,0,318.4-.1,0-92.4.1-184.9-.1-277.3"/></svg>