<?xml version="1.0" encoding="UTF-8"?><svg id="a" xmlns="http://www.w3.org/2000/svg" viewBox="0 0 108.3 122.9"><defs><style>.b{fill:#e44d26;}.b,.c{fill-rule:evenodd;}.c{fill:#f16529;}</style></defs><path class="b" d="m0,0l9.9,110.6,44.2,12.3,44.4-12.3L108.3,0H0Zm26.3,91.7l-1.9-21.3h13.6l1,10.8,15.1,4.1h0s0,0,0,0l15.1-4.1,1.6-17.6H23.8l-3.3-37.4-.3-3.6h34s34,0,34,0l-.3,3.6-.6,6.9-.3,3h-51.9l1.2,13.9h49.4l-.3,3.6-3.2,35.7-.2,2.3-27.8,7.7h0s-27.8-7.7-27.8-7.7Z"/><polygon class="c" points="54.2 85.3 54.2 85.3 54.2 63.6 70.8 63.6 69.3 81.2 54.2 85.3"/><polygon class="c" points="98.5 9 90 103.5 54.2 113.5 54.2 99.4 54.2 99.4 81.9 91.7 82.1 89.4 85.3 53.7 85.7 50.1 54.2 50.1 54.2 36.2 86.9 36.2 87.2 33.1 87.8 26.2 88.1 22.6 54.2 22.6 54.2 9 98.5 9"/></svg>