<?xml version="1.0" encoding="UTF-8"?><svg id="a" xmlns="http://www.w3.org/2000/svg" viewBox="0 0 122.9 122.9"><defs><style>.b{fill:#f7df1e;fill-rule:evenodd;}</style></defs><path class="b" d="m0,0v122.9h122.9V0H0Zm66.9,95.8c0,12-7,17.4-17.2,17.4s-14.6-4.8-17.3-10.5l9.4-5.7c1.8,3.2,3.5,5.9,7.4,5.9s6.2-1.5,6.2-7.3v-39.3h11.5v39.4Zm27.3,17.4c-10.7,0-17.6-5.1-21-11.8l9.4-5.4c2.5,4,5.7,7,11.4,7s7.8-2.4,7.8-5.7-3.1-5.4-8.4-7.7l-2.9-1.2c-8.3-3.5-13.9-8-13.9-17.4s6.6-15.3,16.9-15.3,12.6,2.6,16.4,9.2l-9,5.8c-2-3.5-4.1-5-7.4-5s-5.5,2.1-5.5,5,2.1,4.9,7.1,7l2.9,1.2c9.8,4.2,15.3,8.5,15.3,18.1s-8.2,16.1-19.1,16.1Z"/></svg>