<svg xmlns="http://www.w3.org/2000/svg" viewBox="0 0 2130 2888"><path d="M686 2234s-110 64 79 86a1670 1670 0 00 598-25s66 42 159 78c-565 242-1280-14-836-138m-69-318s-124 92 65 111a2350 2350 0 00 772-37s46 47 119 72c-684 200-1445 16-956-147" fill="#5382a1"/><path d="M1199 1381c139 160-37 305-37 305s354-183 191-411c-152-213-268-319 362-685 0 0-989 247-517 791" fill="#f8981d"/><path d="M1947 2468s82 67-90 119c-326 99-1358 129-1645 4-103-45 90-107 151-120 63-14 100-11 100-11-115-81-741 159-318 227 1153 187 2102-84 1802-219M739 1590s-525 125-186 170c143 19 429 15 694-7 217-18 435-57 435-57s-77 33-132 71c-533 140-1563 75-1266-68 251-121 455-107 455-107m942 524c542-282 291-552 116-516-43 9-62 17-62 17s16-25 46-36c346-122 612 359-112 549 0 0 8-7 11-14" fill="#5382a1"/><path d="M1354 0s300 300-285 762c-469 370-107 581 0 823-274-247-475-464-340-667C927 621 1475 477 1354 0" fill="#f8981d"/><path d="M792 2879c520 33 1319-18 1338-265 0 0-36 93-430 167a4246 4246 0 01-1316 20s66 55 408 77" fill="#5382a1"/></svg>
