<svg xmlns="http://www.w3.org/2000/svg" viewBox="0 0 1300 2910"><path d="M1280 1160c-150-680-470-860-550-990-40-50-70-110-90-170-10 60-10 100-60 140C470 230 40 590 0 1360c-30 710 530 1150 600 1200 60 30 130 0 160-30 270-180 640-680 520-1370" fill="#10aa50"/><path d="M660 2180c-10 170-20 280-60 380 0 0 30 170 40 350h60c10-130 40-250 60-380-70-30-100-200-100-350Z" fill="#b8c4c2"/><path d="M760 2530c-70-30-90-200-100-350 20-260 30-510 20-770-10-130 0-1230-30-1390l80 150c80 130 400 310 550 990 120 690-250 1190-520 1370Z" fill="#12924f"/></svg>
