<svg xmlns="http://www.w3.org/2000/svg" viewBox="0 0 773.9 797.9"><path d="M772 478q-8-22-33-26-11-2-26 1-25 5-40 5c36-60 65-129 82-194 27-105 12-153-4-175C706 32 640 1 561 0c-42 0-79 8-98 14q-27-5-57-5-57-1-101 24-25-9-70-18Q130-1 69 42-6 95 1 222a1031 1031 0 0 0 83 296q32 60 69 73c15 5 41 8 68-15q5 7 14 13 13 7 27 11 53 12 94-6l1 14v19a330 330 0 0 0 15 99c4 12 11 33 28 50q29 24 59 22c31-2 20-2 28-3 30-7 64-17 88-51 23-33 35-83 37-161v-6l1-4h7c30 2 67-5 90-15 18-9 75-39 62-80m-72 58c-18 9-47 14-72 14s-23-1-32-4c-4 38-12 107-18 137-9 54-33 79-89 91l-26 3c-54 0-71-42-78-60-9-21-12-91-11-162q-30 27-71 27c-41 0-24-2-36-5-4-1-35-9-34-29 0-18 26-23 36-25 34-8 36-10 47-24l8-10v-1q-24 0-45-12l-61 70q-25 27-45 25l-13-2q-52-18-99-168c-23-76-38-155-39-181Q16 104 81 59q53-38 149-23c37 6 67 16 78 20q41-27 96-26 31 1 56 7c8-4 50-16 100-16 72 1 132 29 172 81q15 20 15 62-1 40-14 93c-19 73-54 151-96 216 6 4 25 12 80 1q27-6 33 10c6 20-30 43-50 52"/><path d="M288 73c-39-13-135-38-194 4q-54 39-49 142c1 21 14 98 38 175 27 89 58 145 84 154 4 1 16 5 34-16 26-31 49-57 60-68l-8-8c-24-25-35-61-30-97a458 458 0 0 0 1-103c0-7-1-117 63-182zm68 191q-5-25-26-30c-31-7-74 17-83 25v7c1 19 3 55-2 96-4 29 5 58 24 79q25 25 57 25l11-32 1-4 8-17c13-29 29-64 10-149m-10-5c-1 6-10 14-20 14l-2-1q-10 0-16-10-4-2-3-9l2-4q6-4 20-3c10 1 20 6 19 13m28 251q-4-11-12-15c-6-3-9-4-17 4l-11 14c-14 17-20 23-61 32l-16 4 15 7c30 7 72 8 100-32 4-5 2-11 2-14m205-87-9-17c-24-42-72-128-41-173q22-31 85-25c-6-16-20-47-45-77-30-35-83-77-165-79q-63-1-102 38c-41 42-52 107-55 142l7-4c10-5 31-14 53-16q58-5 71 47c20 92 1 133-12 163l-7 16-2 5-9 29c10-3 18 1 22 2a45 45 0 0 1 26 36l1 4c-3 93 1 177 8 195 12 29 29 54 79 44 47-11 64-28 72-74 6-35 18-133 20-155-2-42 20-50 33-54l-6-7q-12-13-24-40m30-123 4-37q3-16 3-32c-44-5-61 5-68 15-24 33 22 114 41 149l16 32c14-29 10-58 7-86q-4-20-3-42Zm-18-44q-3 4-13 7h-2c-10 0-17-7-18-11-1-6 8-10 18-11 9-2 19 0 20 5q0 5-5 10m124-140q-54-70-152-72-39 0-65 6c39 17 67 42 86 65 36 41 54 87 55 103v6q0 23-4 42l-4 34 3 39c4 33 9 70-14 108l1 2 3 3c88-139 119-301 91-336m7 380q-69 14-97-4l-3-2-5 1c-10 3-20 6-19 32q4 5 37 5c21-1 42-6 55-12q23-11 32-20" style="fill:#336791"/></svg>