<svg xmlns="http://www.w3.org/2000/svg" viewBox="0 0 110 110"><defs><linearGradient id="a" x1="63.6" x2="118.3" y1="967.4" y2="1022.3" gradientTransform="translate(-53.3 -957.6)" gradientUnits="userSpaceOnUse"><stop offset="0" stop-color="#387eb8"/><stop offset="1" stop-color="#366994"/></linearGradient><linearGradient id="b" x1="96.8" x2="155.5" y1="1002.4" y2="1058.6" gradientTransform="translate(-53.3 -957.6)" gradientUnits="userSpaceOnUse"><stop offset="0" stop-color="#ffe052"/><stop offset="1" stop-color="#ffc331"/></linearGradient></defs><path d="M54.8 0c-26 0-26.2 10.1-26.2 12.2v12.6h26.8v3.8H17.9C10 28.6 0 33.4 0 54.9s7.8 27.3 15.7 27.3H25V69.1c0-5.5 2.7-15.7 15.4-15.7h26.5c3.9 0 14.9-1.7 14.9-14.4V14.7c0-3.2-.5-14.7-27-14.7M40 8.5c2.7 0 4.8 2.1 4.8 4.8s-2.2 4.8-4.8 4.8-4.8-2.2-4.8-4.8 2.2-4.8 4.8-4.8" style="fill:url(#a)"/><path d="M55.2 110c26 0 26.3-10.3 26.3-12.2V85.2H54.7v-3.8h37.4c8 0 17.9-5 17.9-26.2S99.5 27.9 94.3 27.9H85V41c0 5.5-2.6 15.7-15.4 15.7H43.1c-3.9 0-14.9 1.9-14.9 14.4v24.2c0 5.2 3.2 14.7 27 14.7m14.8-8.5c-2.7 0-4.8-2.2-4.8-4.8s2.2-4.8 4.8-4.8 4.8 2.2 4.8 4.8-2.2 4.8-4.8 4.8" style="fill:url(#b)"/></svg>