<svg xmlns="http://www.w3.org/2000/svg" viewBox="0 0 380 400"><path d="M0 60v260l190 80V120L0 60Zm137 236c-2 5-5 8-9 11-4 2-8 4-14 4s-11-1-18-4c-6-2-12-5-17-10-6-4-10-9-15-15A70 70 0 01 50 240l20 7c0 5 0 10 2 14l5 11 8 8 10 5c7 3 13 3 17 0 4-3 5-7 5-14v-9c0-3-2-6-4-8l-8-9-13-11-16-13-12-14-8-16-3-18c0-6 1-12 3-17 2-5 5-8 9-11a30 30 0 01 13-5c5 0 11 0 17 2a40 40 0 01 18 10 76 76 0 01 23 33c2 7 3 13 3 20l-21-7-1-11c0-4-2-7-4-10l-7-8-10-5-10-2-7 2c-2 1-3 3-4 6l-1 8c0 6 2 12 6 17 4 5 11 11 19 17a143 143 0 01 31 30l8 17c2 6 2 12 2 18s0 12-3 17Z" fill="#dd2c00"/><path d="M190 120v280l190-80V60l-190 60Zm136 167-18 7-21-109-22 127-19 8-27-155 20-7 18 117 21-130 16-6 20 113L330 126l18-6-24 167Z" fill="#a52005"/><path d="m0 60 190-60 190 60-190 60L0 60Z" fill="#ff3d00"/></svg>
