<svg xmlns="http://www.w3.org/2000/svg" xmlns:xlink="http://www.w3.org/1999/xlink" xml:space="preserve" width="256" height="256"><defs><linearGradient id="a" x1="0" x2="1" y1="0" y2="0" gradientTransform="matrix(0 -91.9 -91.9 0 86 161)" gradientUnits="userSpaceOnUse" spreadMethod="pad"><stop offset="0" style="stop-opacity:1;stop-color:#97d9f6"/><stop offset=".9" style="stop-opacity:1;stop-color:#0f80cc"/><stop offset="1" style="stop-opacity:1;stop-color:#0f80cc"/></linearGradient><linearGradient xlink:href="#a" id="b" x1="-15.6" x2="-6.7" y1="-9.1" y2="-9.1" gradientTransform="matrix(0 -9.19 -9.19 0 9 16)" gradientUnits="userSpaceOnUse" spreadMethod="pad"/></defs><path d="M103 72s-2 15-5 19l1 8 4-8 1-2s-1 8-4 12l2 7 4-8q0 4-3 10c3 18 15 42 28 53H51q-9-1-10-9V67q1-9 10-10h52z" style="fill:#0f80cc;fill-opacity:1;fill-rule:nonzero;stroke:none" transform="matrix(1.94 0 0 -1.94 -62 334)"/><path d="m99 100 4-8 1-2s-1 8-4 12l2 7 4-7v1l-3 8c3 17 14 39 25 50H51q-7-1-7-6V73q27 12 56 13l-2 6z" style="fill:url(#b);fill-opacity:1;fill-rule:nonzero;stroke:none" transform="matrix(1.94 0 0 -1.94 -62 334)"/><path d="M149 167q-8 7-18-3l-3-3c-11-11-22-33-25-50l3-10 1-2-1 2v1l-4 7-2-7c3-4 4-12 4-12l-1 2-4 8-1-8 2-6 3-13V57l3-14h1q-3 9-2 21 0 20 8 44 15 38 34 53a207 207 0 0 1-39-88c3 11 14 15 14 15l13 17-13-3-4-2s10 6 19 9c12 19 25 46 12 58" style="fill:#003b57;fill-opacity:1;fill-rule:nonzero;stroke:none" transform="matrix(1.94 0 0 -1.94 -62 334)"/></svg>