<svg xmlns="http://www.w3.org/2000/svg" viewBox="0 0 2600 2600"><path d="M98 0h2405c54 0 98 44 98 98v2405c0 54-44 98-98 98H98a98 98 0 01-98-98V98C0 44 44 0 98 0Zm1348 1383V1170H520v213h330v949h263v-949h332Zm105 924a550 550 0 00 150 49 981 981 0 00 361-2c56-12 106-31 148-59s76-63 101-107 37-99 37-163-7-88-21-124c-14-35-35-67-61-94s-59-52-96-74a925 925 0 00-126-62c-34-14-65-28-92-41-27-13-50-27-69-41a167 167 0 01-44-44c-10-15-16-33-16-52s5-34 14-48c9-14 22-27 39-37 17-10 38-18 62-24 24-6 52-9 82-9s45 2 69 5a473 473 0 01 208 77v-242c-40-15-83-26-130-34-47-7-101-11-162-11s-121 7-176 20c-55 13-104 34-146 62s-75 64-100 107a337 337 0 00 30 354 512 512 0 00 204 139l100 43c31 14 58 29 80 44 23 15 40 32 53 49s20 38 20 61-4 32-12 47c-8 14-21 27-37 37a196 196 0 01-62 25 488 488 0 01-409-110v259Z" fill="#3178c6"/></svg>
